<svg width="533" height="323" viewBox="0 0 533 323" fill="none" xmlns="http://www.w3.org/2000/svg">
<rect width="532.667" height="322.667" fill="white"/>
<g clip-path="url(#clip0_2_17)">
<path fill-rule="evenodd" clip-rule="evenodd" d="M287.627 192.769H267.843L276.205 161.563L262.267 147.625C284.777 147.625 307.289 147.625 329.8 147.625L334.572 129.818C323.576 129.818 314.917 129.818 303.924 129.818L309.915 138.002H287.793L267.319 110.033H287.104H340.448C345.336 110.033 349.543 112.058 352.593 115.879C356.681 121.002 358.036 127.497 356.285 134.03L351.456 152.052C348.995 161.237 340.952 167.409 331.443 167.409L350.007 192.769H327.885L309.321 167.409H294.423L287.627 192.769" fill="black"/>
<path fill-rule="evenodd" clip-rule="evenodd" d="M413.999 151.402L444.281 192.769H422.16L391.877 151.402H413.999" fill="black"/>
<path fill-rule="evenodd" clip-rule="evenodd" d="M352.949 192.769H372.733L387.409 138.002H367.624L352.949 192.769ZM389.601 129.818L394.903 110.033H375.119L369.817 129.818H389.601" fill="black"/>
<path fill-rule="evenodd" clip-rule="evenodd" d="M413.999 151.402L444.281 110.034H422.16L391.877 151.402H413.999Z" fill="black"/>
<path fill-rule="evenodd" clip-rule="evenodd" d="M221.803 192.769H241.587L263.756 110.033H243.972L221.803 192.769Z" fill="black"/>
<path fill-rule="evenodd" clip-rule="evenodd" d="M214.34 110.033L153.775 192.769H175.895L236.46 110.033H214.34" fill="black"/>
<path fill-rule="evenodd" clip-rule="evenodd" d="M246.127 129.818H215.551L226.973 110.033H257.549L246.127 129.818Z" fill="black"/>
<path fill-rule="evenodd" clip-rule="evenodd" d="M236.629 167.409H206.053L217.476 147.625H248.052L236.629 167.409Z" fill="black"/>
<path fill-rule="evenodd" clip-rule="evenodd" d="M404.764 167.409H369.224L380.647 147.625H416.187L404.764 167.409Z" fill="black"/>
<path fill-rule="evenodd" clip-rule="evenodd" d="M124.504 212.004L199.149 110.033C180.715 110.033 162.28 110.033 143.846 110.033L69.201 212.004C87.6355 212.004 106.069 212.004 124.504 212.004Z" fill="#DC0000"/>
<path d="M153.093 212.004H157.02V197.903H153.093V212.004ZM178.381 212.004H182.249V204.268L188.272 212.004H191.696V197.903H187.829V205.356L182.028 197.903H178.381V212.004ZM212.977 212.004H218.336C223.412 212.004 226.373 208.982 226.373 204.912V204.873C226.373 200.803 223.452 197.903 218.416 197.903H212.977V212.004ZM216.885 208.539V201.368H218.477C220.813 201.368 222.364 202.677 222.364 204.933V204.973C222.364 207.249 220.813 208.539 218.477 208.539H216.885ZM253.516 212.266C257.524 212.266 260.123 210.271 260.123 205.719V197.903H256.155V205.84C256.155 207.814 255.127 208.74 253.556 208.74C251.985 208.74 250.957 207.773 250.957 205.739V197.903H246.989V205.819C246.989 210.231 249.507 212.266 253.516 212.266V212.266ZM286.761 212.245C290.187 212.245 292.463 210.533 292.463 207.653V207.612C292.463 204.973 290.448 203.926 287.205 203.221C285.251 202.778 284.768 202.495 284.768 201.851V201.81C284.768 201.307 285.231 200.904 286.179 200.904C287.427 200.904 288.837 201.387 290.127 202.294L292.08 199.534C290.549 198.305 288.676 197.661 286.279 197.661C282.895 197.661 280.82 199.555 280.82 202.173V202.214C280.82 205.114 283.136 205.96 286.137 206.645C288.051 207.088 288.515 207.41 288.515 207.995V208.035C288.515 208.64 287.951 209.002 286.903 209.002C285.272 209.002 283.72 208.418 282.331 207.31L280.155 209.908C281.887 211.459 284.264 212.245 286.761 212.245V212.245ZM316.181 212.004H320.088V201.327H324.319V197.903H311.951V201.327H316.181V212.004ZM344.815 212.004H348.721V207.733H350.435L353.275 212.004H357.787L354.423 207.088C356.176 206.343 357.324 204.912 357.324 202.757V202.717C357.324 201.327 356.9 200.24 356.075 199.433C355.128 198.467 353.637 197.903 351.481 197.903H344.815V212.004ZM348.721 204.671V201.286H351.28C352.591 201.286 353.395 201.851 353.395 202.959V202.999C353.395 204.027 352.631 204.671 351.3 204.671H348.721ZM378.161 212.004H382.089V197.903H378.161V212.004ZM403.451 212.004H414.892V208.68H407.317V206.444H414.087V203.361H407.317V201.227H414.791V197.903H403.451V212.004ZM441.208 212.245C444.633 212.245 446.909 210.533 446.909 207.653V207.612C446.909 204.973 444.895 203.926 441.652 203.221C439.697 202.778 439.215 202.495 439.215 201.851V201.81C439.215 201.307 439.677 200.904 440.624 200.904C441.873 200.904 443.284 201.387 444.573 202.294L446.527 199.534C444.996 198.305 443.123 197.661 440.725 197.661C437.341 197.661 435.267 199.555 435.267 202.173V202.214C435.267 205.114 437.583 205.96 440.584 206.645C442.497 207.088 442.961 207.41 442.961 207.995V208.035C442.961 208.64 442.397 209.002 441.351 209.002C439.717 209.002 438.167 208.418 436.777 207.31L434.601 209.908C436.333 211.459 438.711 212.245 441.208 212.245" fill="#808080"/>
<path d="M454.216 115.761V111.002H452.52V110.033H457.064V111.002H455.376V115.761H454.216ZM457.799 115.761V110.033H459.536L460.563 113.94L461.579 110.033H463.319V115.761H462.248L462.243 111.252L461.115 115.761H460L458.875 111.252L458.871 115.761H457.799" fill="black"/>
</g>
<defs>
<clipPath id="clip0_2_17">
<rect width="394.667" height="102.667" fill="white" transform="translate(69 110)"/>
</clipPath>
</defs>
</svg>
