<svg width="574" height="250" viewBox="0 0 1074 370" fill="none" xmlns="http://www.w3.org/2000/svg">
<path fill-rule="evenodd" clip-rule="evenodd" d="M594.945 299.47H541.107L563.865 186.577L525.933 136.155C587.191 136.155 648.453 136.155 709.711 136.155L722.697 71.7393C692.774 71.7393 669.211 71.7393 639.295 71.7393L655.597 101.345H595.399L539.681 0.165569H593.523H738.687C751.989 0.165569 763.436 7.48951 771.738 21.3116C782.863 39.8443 786.549 63.3417 781.785 86.9747L768.643 152.172C761.945 185.401 740.059 207.728 714.181 207.728L764.699 299.47H704.5L653.983 207.728H613.439L594.945 299.47" fill="black"/>
<path fill-rule="evenodd" clip-rule="evenodd" d="M938.839 149.819L1021.25 299.47H961.049L878.641 149.819H938.839" fill="black"/>
<path fill-rule="evenodd" clip-rule="evenodd" d="M772.707 299.47H826.545L866.482 101.345H812.641L772.707 299.47ZM872.447 71.7393L886.874 0.165569H833.036L818.609 71.7393H872.447" fill="black"/>
<path fill-rule="evenodd" clip-rule="evenodd" d="M938.839 149.819L1021.25 0.167522H961.049L878.641 149.819H938.839Z" fill="black"/>
<path fill-rule="evenodd" clip-rule="evenodd" d="M415.819 299.47H469.657L529.986 0.165569H476.149L415.819 299.47Z" fill="black"/>
<path fill-rule="evenodd" clip-rule="evenodd" d="M395.511 0.165569L230.696 299.47H290.893L455.706 0.165569H395.511" fill="black"/>
<path fill-rule="evenodd" clip-rule="evenodd" d="M482.012 71.7394H398.806L429.89 0.165621H513.096L482.012 71.7394Z" fill="black"/>
<path fill-rule="evenodd" clip-rule="evenodd" d="M456.167 207.728H372.961L404.045 136.155H487.251L456.167 207.728Z" fill="black"/>
<path fill-rule="evenodd" clip-rule="evenodd" d="M913.709 207.728H816.995L848.079 136.155H944.793L913.709 207.728Z" fill="black"/>
<path fill-rule="evenodd" clip-rule="evenodd" d="M151.041 369.052L354.172 0.165593C304.007 0.165593 253.842 0.165593 203.677 0.165593L0.547119 369.052C50.7124 369.052 100.876 369.052 151.041 369.052Z" fill="#DC0000"/>
<path d="M228.84 369.052H239.528V318.041H228.84V369.052ZM297.657 369.052H308.184V341.069L324.574 369.052H333.892V318.041H323.368V345.005L307.58 318.041H297.657V369.052ZM391.803 369.052H406.386C420.199 369.052 428.258 358.12 428.258 343.399V343.256C428.258 328.533 420.308 318.041 406.603 318.041H391.803V369.052ZM402.438 356.519V330.576H406.77C413.127 330.576 417.347 335.311 417.347 343.473V343.62C417.347 351.854 413.127 356.519 406.77 356.519H402.438ZM502.12 370C513.027 370 520.099 362.784 520.099 346.316V318.041H509.301V346.753C509.301 353.894 506.504 357.246 502.229 357.246C497.955 357.246 495.158 353.747 495.158 346.388V318.041H484.36V346.68C484.36 362.639 491.21 370 502.12 370V370ZM592.59 369.927C601.912 369.927 608.105 363.731 608.105 353.312V353.165C608.105 343.62 602.623 339.831 593.799 337.28C588.479 335.676 587.166 334.655 587.166 332.324V332.177C587.166 330.357 588.425 328.899 591.005 328.899C594.401 328.899 598.24 330.647 601.748 333.926L607.064 323.944C602.899 319.497 597.801 317.166 591.277 317.166C582.068 317.166 576.422 324.017 576.422 333.491V333.636C576.422 344.129 582.725 347.19 590.892 349.668C596.099 351.27 597.362 352.436 597.362 354.55V354.695C597.362 356.882 595.827 358.194 592.975 358.194C588.538 358.194 584.314 356.08 580.533 352.072L574.612 361.472C579.325 367.083 585.794 369.927 592.59 369.927V369.927ZM672.651 369.052H683.282V330.429H694.795V318.041H661.138V330.429H672.651V369.052ZM750.57 369.052H761.201V353.602H765.864L773.592 369.052H785.87L776.716 351.27C781.487 348.573 784.611 343.399 784.611 335.603V335.458C784.611 330.429 783.458 326.495 781.212 323.578C778.636 320.081 774.579 318.041 768.712 318.041H750.57V369.052ZM761.201 342.527V330.282H768.164C771.731 330.282 773.919 332.324 773.919 336.332V336.477C773.919 340.194 771.84 342.527 768.218 342.527H761.201ZM841.316 369.052H852.005V318.041H841.316V369.052ZM910.135 369.052H941.27V357.028H920.657V348.939H939.079V337.788H920.657V330.065H940.995V318.041H910.135V369.052ZM1012.88 369.927C1022.2 369.927 1028.4 363.731 1028.4 353.312V353.165C1028.4 343.62 1022.92 339.831 1014.09 337.28C1008.77 335.676 1007.46 334.655 1007.46 332.324V332.177C1007.46 330.357 1008.72 328.899 1011.29 328.899C1014.69 328.899 1018.53 330.647 1022.04 333.926L1027.36 323.944C1023.19 319.497 1018.09 317.166 1011.57 317.166C1002.36 317.166 996.716 324.017 996.716 333.491V333.636C996.716 344.129 1003.02 347.19 1011.19 349.668C1016.39 351.27 1017.65 352.436 1017.65 354.55V354.695C1017.65 356.882 1016.12 358.194 1013.27 358.194C1008.83 358.194 1004.61 356.08 1000.83 352.072L994.905 361.472C999.618 367.083 1006.09 369.927 1012.88 369.927" fill="#808080"/>
<path d="M1048.28 20.8876V3.66838H1043.67V0.165576H1056.03V3.66838H1051.44V20.8876H1048.28ZM1058.03 20.8876V0.165576H1062.76L1065.55 14.2988L1068.32 0.165576H1073.05V20.8876H1070.14L1070.12 4.57469L1067.06 20.8876H1064.02L1060.96 4.57469L1060.95 20.8876H1058.03" fill="black"/>
</svg>
